<?xml version="1.0" standalone="no"?>
<!DOCTYPE svg PUBLIC "-//W3C//DTD SVG 20010904//EN"
 "http://www.w3.org/TR/2001/REC-SVG-20010904/DTD/svg10.dtd">
<svg version="1.0" xmlns="http://www.w3.org/2000/svg"
 width="512.000000pt" height="512.000000pt" viewBox="0 0 512.000000 512.000000"
 preserveAspectRatio="xMidYMid meet">

<g transform="translate(0.000000,512.000000) scale(0.100000,-0.100000)"
fill="#000000" stroke="none">
<path d="M1315 4057 c-112 -38 -181 -97 -229 -197 -27 -57 -31 -75 -31 -150 1
-70 5 -95 27 -142 106 -229 403 -284 575 -106 173 178 114 479 -113 579 -58
26 -175 34 -229 16z"/>
<path d="M3161 3119 c-82 -13 -192 -55 -262 -102 -54 -35 -140 -121 -186 -182
l-22 -30 0 138 -1 137 -295 0 -295 0 0 -995 0 -995 309 0 310 0 3 588 c4 520
6 594 21 646 53 182 153 257 339 257 167 0 255 -68 305 -238 15 -51 18 -133
23 -653 l5 -595 305 0 305 0 -1 645 c0 692 -5 774 -55 938 -70 226 -212 365
-436 423 -92 23 -278 33 -372 18z"/>
<path d="M1095 3068 c-3 -7 -4 -454 -3 -993 l3 -980 310 0 310 0 0 990 0 990
-308 3 c-241 2 -309 0 -312 -10z"/>
</g>
</svg>
